<svg width="120" height="120" viewBox="0 0 120 120" fill="none" xmlns="http://www.w3.org/2000/svg">
<circle cx="60" cy="60" r="60" fill="white"/>
<path d="M71.88 69.492C75.031 66.3394 76.8011 62.0645 76.8011 57.6072C76.8011 53.1499 75.031 48.875 71.88 45.7224C70.3203 44.1616 68.4683 42.9235 66.4299 42.0787C64.3915 41.234 62.2065 40.7992 60 40.7992C57.7935 40.7992 55.6086 41.234 53.5702 42.0787C51.5317 42.9235 49.6797 44.1616 48.12 45.7224C44.969 48.875 43.199 53.1499 43.199 57.6072C43.199 62.0645 44.969 66.3394 48.12 69.492L51.7704 73.0896L56.6736 77.8536L56.9928 78.1368C58.8528 79.644 61.5768 79.548 63.3288 77.8536L69.1728 72.1656L71.88 69.492ZM60 64.8C58.0905 64.8 56.2591 64.0414 54.9088 62.6912C53.5586 61.3409 52.8 59.5096 52.8 57.6C52.8 55.6904 53.5586 53.8591 54.9088 52.5088C56.2591 51.1586 58.0905 50.4 60 50.4C61.9096 50.4 63.7409 51.1586 65.0912 52.5088C66.4415 53.8591 67.2 55.6904 67.2 57.6C67.2 59.5096 66.4415 61.3409 65.0912 62.6912C63.7409 64.0414 61.9096 64.8 60 64.8Z" fill="url(#paint0_linear)"/>
<defs>
<linearGradient id="paint0_linear" x1="60" y1="40.7992" x2="60" y2="79.2" gradientUnits="userSpaceOnUse">
<stop stop-color="#0400D6"/>
<stop offset="1" stop-color="#8400D6"/>
</linearGradient>
</defs>
</svg>
