<svg width="120" height="120" viewBox="0 0 120 120" fill="none" xmlns="http://www.w3.org/2000/svg">
<circle cx="60" cy="60" r="60" fill="white"/>
<path d="M60 72C63.1826 72 66.2348 70.7357 68.4853 68.4853C70.7357 66.2348 72 63.1826 72 60C72 56.8174 70.7357 53.7652 68.4853 51.5147C66.2348 49.2643 63.1826 48 60 48C56.8174 48 53.7652 49.2643 51.5147 51.5147C49.2643 53.7652 48 56.8174 48 60C48 63.1826 49.2643 66.2348 51.5147 68.4853C53.7652 70.7357 56.8174 72 60 72ZM60 36C60.3978 36 60.7794 36.158 61.0607 36.4393C61.342 36.7206 61.5 37.1022 61.5 37.5V43.5C61.5 43.8978 61.342 44.2794 61.0607 44.5607C60.7794 44.842 60.3978 45 60 45C59.6022 45 59.2206 44.842 58.9393 44.5607C58.658 44.2794 58.5 43.8978 58.5 43.5V37.5C58.5 37.1022 58.658 36.7206 58.9393 36.4393C59.2206 36.158 59.6022 36 60 36V36ZM60 75C60.3978 75 60.7794 75.158 61.0607 75.4393C61.342 75.7206 61.5 76.1022 61.5 76.5V82.5C61.5 82.8978 61.342 83.2794 61.0607 83.5607C60.7794 83.842 60.3978 84 60 84C59.6022 84 59.2206 83.842 58.9393 83.5607C58.658 83.2794 58.5 82.8978 58.5 82.5V76.5C58.5 76.1022 58.658 75.7206 58.9393 75.4393C59.2206 75.158 59.6022 75 60 75ZM84 60C84 60.3978 83.842 60.7794 83.5607 61.0607C83.2794 61.342 82.8978 61.5 82.5 61.5H76.5C76.1022 61.5 75.7206 61.342 75.4393 61.0607C75.158 60.7794 75 60.3978 75 60C75 59.6022 75.158 59.2206 75.4393 58.9393C75.7206 58.658 76.1022 58.5 76.5 58.5H82.5C82.8978 58.5 83.2794 58.658 83.5607 58.9393C83.842 59.2206 84 59.6022 84 60ZM45 60C45 60.3978 44.842 60.7794 44.5607 61.0607C44.2794 61.342 43.8978 61.5 43.5 61.5H37.5C37.1022 61.5 36.7206 61.342 36.4393 61.0607C36.158 60.7794 36 60.3978 36 60C36 59.6022 36.158 59.2206 36.4393 58.9393C36.7206 58.658 37.1022 58.5 37.5 58.5H43.5C43.8978 58.5 44.2794 58.658 44.5607 58.9393C44.842 59.2206 45 59.6022 45 60ZM76.971 43.029C77.2522 43.3103 77.4102 43.6918 77.4102 44.0895C77.4102 44.4872 77.2522 44.8687 76.971 45.15L72.729 49.395C72.5895 49.5343 72.424 49.6447 72.2419 49.72C72.0597 49.7953 71.8645 49.834 71.6674 49.8338C71.2694 49.8336 70.8878 49.6752 70.6065 49.3935C70.4672 49.254 70.3568 49.0885 70.2815 48.9064C70.2062 48.7242 70.1675 48.529 70.1677 48.3319C70.1679 47.9339 70.3263 47.5523 70.608 47.271L74.85 43.029C75.1313 42.7478 75.5128 42.5898 75.9105 42.5898C76.3082 42.5898 76.6897 42.7478 76.971 43.029ZM49.392 70.608C49.6732 70.8893 49.8312 71.2708 49.8312 71.6685C49.8312 72.0662 49.6732 72.4477 49.392 72.729L45.15 76.971C44.8671 77.2442 44.4882 77.3954 44.0949 77.392C43.7016 77.3886 43.3254 77.2308 43.0473 76.9527C42.7692 76.6746 42.6114 76.2984 42.608 75.9051C42.6046 75.5118 42.7558 75.1329 43.029 74.85L47.271 70.608C47.5523 70.3268 47.9338 70.1688 48.3315 70.1688C48.7292 70.1688 49.1107 70.3268 49.392 70.608ZM76.971 76.971C76.6897 77.2522 76.3082 77.4102 75.9105 77.4102C75.5128 77.4102 75.1313 77.2522 74.85 76.971L70.608 72.729C70.3348 72.4461 70.1836 72.0672 70.187 71.6739C70.1904 71.2806 70.3482 70.9044 70.6263 70.6263C70.9044 70.3482 71.2806 70.1904 71.6739 70.187C72.0672 70.1836 72.4461 70.3348 72.729 70.608L76.971 74.85C77.2522 75.1313 77.4102 75.5128 77.4102 75.9105C77.4102 76.3082 77.2522 76.6897 76.971 76.971ZM49.392 49.395C49.1107 49.6762 48.7292 49.8342 48.3315 49.8342C47.9338 49.8342 47.5523 49.6762 47.271 49.395L43.029 45.15C42.8857 45.0116 42.7715 44.8461 42.6928 44.6631C42.6142 44.4801 42.5729 44.2833 42.5711 44.0841C42.5694 43.8849 42.6073 43.6874 42.6828 43.5031C42.7582 43.3187 42.8696 43.1512 43.0104 43.0104C43.1512 42.8696 43.3187 42.7582 43.5031 42.6828C43.6874 42.6073 43.8849 42.5694 44.0841 42.5711C44.2833 42.5729 44.4801 42.6142 44.6631 42.6928C44.8461 42.7715 45.0116 42.8857 45.15 43.029L49.392 47.271C49.5317 47.4103 49.6425 47.5759 49.7181 47.7581C49.7938 47.9403 49.8327 48.1357 49.8327 48.333C49.8327 48.5303 49.7938 48.7257 49.7181 48.9079C49.6425 49.0901 49.5317 49.2557 49.392 49.395Z" fill="#EB5500"/>
</svg>
