<svg width="32" height="32" viewBox="0 0 32 32" fill="none" xmlns="http://www.w3.org/2000/svg">
<path d="M21.9654 7.21068L24.7894 10.0333L21.9654 7.21068ZM23.7814 4.72401L16.1454 12.36C15.7509 12.754 15.4818 13.256 15.3721 13.8027L14.6667 17.3333L18.1974 16.6267C18.7441 16.5173 19.2454 16.2493 19.6401 15.8547L27.2761 8.21868C27.5055 7.98922 27.6876 7.71681 27.8118 7.417C27.9359 7.11719 27.9999 6.79586 27.9999 6.47135C27.9999 6.14684 27.9359 5.8255 27.8118 5.5257C27.6876 5.22589 27.5055 4.95348 27.2761 4.72401C27.0466 4.49455 26.7742 4.31253 26.4744 4.18835C26.1746 4.06416 25.8533 4.00024 25.5287 4.00024C25.2042 4.00024 24.8829 4.06416 24.5831 4.18835C24.2833 4.31253 24.0109 4.49455 23.7814 4.72401V4.72401Z" stroke="white" stroke-width="2" stroke-linecap="round" stroke-linejoin="round"/>
<path d="M25.3334 20.0001V24.0001C25.3334 24.7073 25.0524 25.3856 24.5523 25.8857C24.0522 26.3858 23.374 26.6667 22.6667 26.6667H8.00004C7.2928 26.6667 6.61452 26.3858 6.11442 25.8857C5.61433 25.3856 5.33337 24.7073 5.33337 24.0001V9.33341C5.33337 8.62617 5.61433 7.94789 6.11442 7.4478C6.61452 6.9477 7.2928 6.66675 8.00004 6.66675H12" stroke="white" stroke-width="2" stroke-linecap="round" stroke-linejoin="round"/>
</svg>
