<svg width="74" height="74" viewBox="0 0 74 74" fill="none" xmlns="http://www.w3.org/2000/svg">
<path d="M36.8695 27.6522C31.8737 27.6522 27.6522 31.8737 27.6522 36.8696C27.6522 41.8654 31.8737 46.087 36.8695 46.087C41.8654 46.087 46.0869 41.8654 46.0869 36.8696C46.0869 31.8737 41.8654 27.6522 36.8695 27.6522Z" fill="white"/>
<path d="M61.4493 15.3623H53.5039L45.1867 7.04516C44.9019 6.75929 44.5633 6.53258 44.1905 6.37808C43.8177 6.22358 43.418 6.14435 43.0145 6.14493H30.7246C30.3211 6.14435 29.9214 6.22358 29.5486 6.37808C29.1758 6.53258 28.8372 6.75929 28.5524 7.04516L20.2352 15.3623H12.2899C8.90093 15.3623 6.14493 18.1183 6.14493 21.5072V55.3044C6.14493 58.6933 8.90093 61.4493 12.2899 61.4493H61.4493C64.8382 61.4493 67.5942 58.6933 67.5942 55.3044V21.5072C67.5942 18.1183 64.8382 15.3623 61.4493 15.3623ZM36.8696 52.2319C28.5432 52.2319 21.5072 45.1959 21.5072 36.8696C21.5072 28.5432 28.5432 21.5072 36.8696 21.5072C45.1959 21.5072 52.2319 28.5432 52.2319 36.8696C52.2319 45.1959 45.1959 52.2319 36.8696 52.2319Z" fill="white"/>
</svg>
