<svg width="38" height="40" viewBox="0 0 38 40" fill="none" xmlns="http://www.w3.org/2000/svg">
<path d="M8 5.31042e-07C10.5516 -0.000702135 13.0548 0.695925 15.2392 2.0146C17.4236 3.33327 19.2061 5.22384 20.394 7.482C21.5941 5.78616 23.1837 4.40315 25.0293 3.44922C26.8749 2.49528 28.9225 1.99829 31 2H38V7C38 10.4478 36.6304 13.7544 34.1924 16.1924C31.7544 18.6304 28.4478 20 25 20H22V22H32V36C32 37.0609 31.5786 38.0783 30.8284 38.8284C30.0783 39.5786 29.0609 40 28 40H12C10.9391 40 9.92172 39.5786 9.17157 38.8284C8.42143 38.0783 8 37.0609 8 36V22H18V18H14C10.287 18 6.72601 16.525 4.1005 13.8995C1.475 11.274 0 7.71303 0 4V5.31042e-07H8ZM28 26H12V36H28V26ZM34 6H31C28.6131 6 26.3239 6.94821 24.636 8.63604C22.9482 10.3239 22 12.6131 22 15V16H25C26.1819 16 27.3522 15.7672 28.4441 15.3149C29.5361 14.8626 30.5282 14.1997 31.364 13.364C32.1997 12.5282 32.8626 11.5361 33.3149 10.4442C33.7672 9.35222 34 8.1819 34 7V6ZM8 4H4C4 6.65217 5.05357 9.19571 6.92893 11.0711C8.8043 12.9464 11.3478 14 14 14H18C18 11.3478 16.9464 8.8043 15.0711 6.92893C13.1957 5.05357 10.6522 4 8 4Z" fill="#00CF15"/>
</svg>
