<svg width="100" height="100" viewBox="0 0 100 100" fill="none" xmlns="http://www.w3.org/2000/svg">
<rect width="100" height="100" rx="20" fill="url(#paint0_linear)"/>
<path d="M31.5386 60.2564C30.9946 60.2564 30.4728 60.0403 30.0881 59.6556C29.7034 59.2709 29.4873 58.7491 29.4873 58.2051C29.4873 57.6611 29.7034 57.1393 30.0881 56.7546C30.4728 56.3699 30.9946 56.1538 31.5386 56.1538H53.0771C55.1283 56.1538 57.1796 60.2564 56.154 60.2564H31.5386ZM60.2565 60.2564C59.7125 60.2564 59.1908 60.0403 58.8061 59.6556C58.4214 59.2709 58.2053 58.7491 58.2053 58.2051C58.2053 57.6611 58.4214 57.1393 58.8061 56.7546C59.1908 56.3699 59.7125 56.1538 60.2565 56.1538H68.4617C69.0057 56.1538 69.5275 56.3699 69.9121 56.7546C70.2968 57.1393 70.513 57.6611 70.513 58.2051C70.513 58.7491 70.2968 59.2709 69.9121 59.6556C69.5275 60.0403 69.0057 60.2564 68.4617 60.2564H60.2565ZM51.2986 32.5661C51.5701 32.0944 52.0178 31.7499 52.5433 31.6084C53.0688 31.4668 53.629 31.5398 54.1006 31.8113C54.5723 32.0827 54.9168 32.5305 55.0584 33.0559C55.2 33.5814 55.127 34.1416 54.8555 34.6133L40.6873 59.2205C40.553 59.454 40.3741 59.6588 40.1606 59.8232C39.9472 59.9876 39.7034 60.1084 39.4433 60.1785C39.1832 60.2487 38.9119 60.267 38.6447 60.2323C38.3775 60.1976 38.1198 60.1107 37.8863 59.9764C37.6527 59.8421 37.4479 59.6631 37.2835 59.4497C37.1191 59.2362 36.9984 58.9925 36.9282 58.7324C36.858 58.4723 36.8398 58.2009 36.8744 57.9338C36.9091 57.6666 36.9961 57.4089 37.1304 57.1754L51.2986 32.5641V32.5661ZM33.5899 63.3333C34.6155 61.282 40.7694 59.2307 38.7181 62.7589C37.6051 64.6619 36.4885 66.5628 35.3683 68.4615C35.0969 68.9332 34.6491 69.2777 34.1236 69.4193C33.5982 69.5608 33.038 69.4879 32.5663 69.2164C32.0946 68.9449 31.7501 68.4972 31.6085 67.9717C31.467 67.4462 31.5399 66.886 31.8114 66.4143L33.5899 63.3333ZM44.1191 34.6133C43.8476 34.1416 43.7746 33.5814 43.9162 33.0559C44.0578 32.5305 44.4023 32.0827 44.874 31.8113C45.3457 31.5398 45.9059 31.4668 46.4313 31.6084C46.9568 31.7499 47.4046 32.0944 47.676 32.5661L51.2514 38.7795C51.3901 39.0131 51.481 39.2719 51.5189 39.5409C51.5567 39.8099 51.5407 40.0838 51.4719 40.3466C51.403 40.6094 51.2826 40.8559 51.1177 41.0718C50.9528 41.2877 50.7467 41.4687 50.5113 41.6043C50.2758 41.7399 50.0158 41.8273 49.7463 41.8616C49.4768 41.8958 49.2032 41.8762 48.9413 41.8039C48.6795 41.7315 48.4346 41.6079 48.2209 41.4401C48.0072 41.2724 47.829 41.0638 47.6965 40.8266L44.1191 34.6133ZM52.0514 48.9743C50.2094 45.8974 52.0514 39.7436 53.5201 42.8123L67.1612 66.4102C67.4241 66.8811 67.4909 67.4366 67.3473 67.9564C67.2037 68.4763 66.8611 68.9186 66.3938 69.1878C65.9264 69.4569 65.3719 69.5312 64.8502 69.3945C64.3285 69.2578 63.8816 68.9211 63.6063 68.4574L52.0514 48.9743Z" fill="white"/>
<defs>
<linearGradient id="paint0_linear" x1="50" y1="0" x2="50" y2="100" gradientUnits="userSpaceOnUse">
<stop stop-color="#00E1EF"/>
<stop offset="1" stop-color="#0078CE"/>
</linearGradient>
</defs>
</svg>
