<svg width="12" height="10" viewBox="0 0 12 10" fill="none" xmlns="http://www.w3.org/2000/svg">
<path fill-rule="evenodd" clip-rule="evenodd" d="M0.5 5.00002C0.5 4.81768 0.572433 4.64281 0.701364 4.51388C0.830295 4.38495 1.00516 4.31251 1.1875 4.31251H9.15287L6.20075 1.36176C6.07166 1.23267 5.99913 1.05758 5.99913 0.875014C5.99913 0.692448 6.07166 0.517358 6.20075 0.388264C6.32984 0.25917 6.50493 0.186646 6.6875 0.186646C6.87007 0.186646 7.04516 0.25917 7.17425 0.388264L11.2992 4.51326C11.3633 4.57713 11.4141 4.65299 11.4487 4.73652C11.4834 4.82004 11.5012 4.90958 11.5012 5.00002C11.5012 5.09045 11.4834 5.17999 11.4487 5.26351C11.4141 5.34704 11.3633 5.4229 11.2992 5.48677L7.17425 9.61177C7.04516 9.74086 6.87007 9.81338 6.6875 9.81338C6.50493 9.81338 6.32984 9.74086 6.20075 9.61177C6.07166 9.48267 5.99913 9.30758 5.99913 9.12502C5.99913 8.94245 6.07166 8.76736 6.20075 8.63827L9.15287 5.68752H1.1875C1.00516 5.68752 0.830295 5.61508 0.701364 5.48615C0.572433 5.35722 0.5 5.18235 0.5 5.00002Z" fill="black" fill-opacity="0.7"/>
</svg>
