<svg width="521" height="424" viewBox="0 0 521 424" fill="none" xmlns="http://www.w3.org/2000/svg">
<g clip-path="url(#clip0)">
<path d="M152.712 399.561C154.7 401.448 157.142 402.791 159.801 403.462C162.46 404.133 165.247 404.108 167.894 403.39C174.677 401.467 179.281 395.353 183.367 389.611L195.458 372.633L185.268 374.5C177.94 375.842 170.431 377.251 164.05 381.092C157.668 384.933 152.556 391.789 152.961 399.221" fill="#E6E6E6"/>
<path d="M143.24 422.432C145.027 416.345 146.825 410.175 149.98 404.627C152.782 399.701 156.611 395.378 161.662 392.69C164.341 391.268 167.248 390.323 170.253 389.899C171.036 389.788 171.164 391.006 170.384 391.117C165.182 391.859 160.351 394.233 156.587 397.895C152.415 401.973 149.677 407.231 147.654 412.643C146.429 415.915 145.44 419.267 144.456 422.619C144.427 422.777 144.338 422.919 144.208 423.014C144.078 423.109 143.916 423.151 143.756 423.131C143.596 423.106 143.452 423.018 143.356 422.887C143.26 422.756 143.219 422.593 143.243 422.432L143.24 422.432Z" fill="#F2F2F2"/>
<path d="M340.007 177.283C341.168 177.003 342.377 176.981 343.547 177.219C344.718 177.456 345.822 177.947 346.783 178.657C347.743 179.367 348.535 180.279 349.105 181.328C349.674 182.377 350.006 183.538 350.078 184.73L378.033 192.58L366.626 202.449L341.829 193.481C339.817 193.469 337.881 192.719 336.385 191.376C334.89 190.032 333.94 188.187 333.715 186.19C333.491 184.194 334.007 182.184 335.167 180.542C336.326 178.901 338.048 177.741 340.007 177.283L340.007 177.283Z" fill="#FFB7B7"/>
<path d="M411.843 415.07L403.694 415.069L399.817 383.672L411.844 383.673L411.843 415.07Z" fill="#FFB7B7"/>
<path d="M413.921 422.96L387.647 422.959V422.627C387.647 419.918 388.724 417.319 390.642 415.403C392.56 413.488 395.161 412.411 397.873 412.411H397.874L413.921 412.412L413.921 422.96Z" fill="#2F2E41"/>
<path d="M459.59 415.07L451.442 415.069L447.565 383.672L459.591 383.673L459.59 415.07Z" fill="#FFB7B7"/>
<path d="M461.668 422.96L435.394 422.959V422.627C435.394 419.918 436.472 417.319 438.39 415.403C440.307 413.488 442.908 412.411 445.621 412.411H445.621L461.669 412.412L461.668 422.96Z" fill="#2F2E41"/>
<path d="M405.185 234.863L393.182 317.918L396.172 405.425L414.197 406.858L419.833 328.382L434.181 284.623L442.616 347.001L442.962 405.425L461.574 406.858L468.065 284.03L463.291 230.612L405.185 234.863Z" fill="#2F2E41"/>
<path d="M439.902 123.664C450.389 123.664 458.89 115.171 458.89 104.695C458.89 94.2187 450.389 85.7261 439.902 85.7261C429.415 85.7261 420.913 94.2187 420.913 104.695C420.913 115.171 429.415 123.664 439.902 123.664Z" fill="#FFB7B7"/>
<path d="M428.197 133.981L407.235 239.481C407.235 239.481 442.528 249.6 457.99 240.258C473.451 230.916 466.523 202.078 466.523 202.078L463.691 153.007L458.458 140.598L454.018 130.355L428.197 133.981Z" fill="#CBCBCB"/>
<path d="M422.061 208.868L429.303 131.933L423.512 136.157L403.263 142.726L401.877 196.891L387.713 268.118C387.713 268.118 397.837 287.854 410.385 255.203L422.061 208.868Z" fill="#2F2E41"/>
<path d="M413.008 150.827L403.263 142.726L381.361 190.254L356.921 184.906L355.767 199.326L391.177 213.325L415.308 179.765L413.008 150.827Z" fill="#2F2E41"/>
<path d="M450.918 192.028L453.648 129.414L463.691 137.184L481.628 142.178L478.998 192.028L482.783 269.378L463.978 275.328L458.699 226.52L450.918 192.028Z" fill="#2F2E41"/>
<path d="M452.125 242.431C452.336 241.256 452.801 240.142 453.489 239.167C454.178 238.191 455.071 237.378 456.108 236.785C457.145 236.192 458.299 235.833 459.489 235.734C460.68 235.635 461.878 235.797 462.998 236.211L481.428 213.793L485.891 228.193L467.706 247.274C466.886 249.108 465.421 250.579 463.588 251.407C461.756 252.235 459.683 252.362 457.762 251.766C455.842 251.169 454.207 249.889 453.168 248.168C452.129 246.448 451.758 244.407 452.125 242.431V242.431Z" fill="#FFB7B7"/>
<path d="M469.619 149.129L481.628 142.178L511.846 201.79L482.385 242.657L465.581 229.236L485.985 202.655L467.389 174.105L469.619 149.129Z" fill="#2F2E41"/>
<path d="M457.76 89.5302L458.681 87.6793L454.049 85.3803C454.049 85.3803 448.939 77.0747 439.693 79.4087C430.446 81.7428 426.286 83.1397 426.286 83.1397L421.666 85.4621L423.985 87.7669L419.825 89.1638L422.604 90.5432L419.37 92.3999L421.111 101.918C421.111 101.918 424.002 94.699 429.561 97.4577C435.119 100.217 445.286 96.0316 445.286 96.0316L454.119 113.108C454.119 113.108 455.941 107.122 459.19 108.718C459.19 108.718 467.49 95.5134 457.76 89.5302Z" fill="#2F2E41"/>
<path d="M342.419 117.36H342.297L272.661 147.064L177.385 187.706C177.012 187.863 176.613 187.944 176.209 187.946C175.805 187.948 175.405 187.871 175.031 187.718L76.7333 146.979L5.38641 117.408L5.27743 117.36H5.15598C4.03023 117.361 2.95096 117.808 2.15494 118.604C1.35892 119.399 0.911166 120.477 0.909912 121.602V305.814C0.911168 306.939 1.35892 308.017 2.15494 308.812C2.95096 309.608 4.03023 310.055 5.15598 310.056H342.419C343.544 310.055 344.624 309.608 345.42 308.812C346.216 308.017 346.664 306.939 346.665 305.814V121.602C346.664 120.477 346.216 119.399 345.42 118.604C344.624 117.808 343.544 117.361 342.419 117.36Z" fill="white"/>
<path d="M342.721 118.572C342.598 118.572 342.477 118.534 342.375 118.463L174.618 1.75247C174.107 1.39895 173.501 1.21001 172.88 1.21107C172.258 1.21213 171.652 1.40312 171.143 1.75839L4.59434 118.462C4.4626 118.554 4.29967 118.59 4.14133 118.562C3.983 118.534 3.84221 118.445 3.74989 118.313C3.65757 118.182 3.62127 118.019 3.64896 117.861C3.67665 117.703 3.76606 117.562 3.89756 117.47L170.447 0.766043C171.16 0.26876 172.008 0.00143345 172.878 5.74866e-06C173.747 -0.00142196 174.597 0.263115 175.311 0.758054L343.069 117.468C343.175 117.542 343.254 117.648 343.296 117.77C343.338 117.892 343.339 118.024 343.3 118.147C343.262 118.27 343.185 118.378 343.08 118.454C342.976 118.531 342.851 118.572 342.721 118.572L342.721 118.572Z" fill="#3F3D56"/>
<path d="M14.1113 122.709L173.044 5.04102L333.184 131.081L181.233 221.067L98.7373 202.282L14.1113 122.709Z" fill="#E6E6E6"/>
<path d="M105.701 276.647H27.1843C26.7022 276.648 26.2245 276.555 25.7786 276.372C25.3327 276.188 24.9273 275.919 24.5856 275.579C24.244 275.24 23.9727 274.836 23.7874 274.391C23.6021 273.946 23.5063 273.47 23.5056 272.988C23.5049 272.506 23.5993 272.029 23.7833 271.584C23.9673 271.139 24.2373 270.734 24.578 270.393C24.9186 270.053 25.3232 269.782 25.7686 269.598C26.2139 269.413 26.6913 269.318 27.1735 269.318H105.701C106.183 269.317 106.661 269.41 107.107 269.594C107.553 269.777 107.958 270.046 108.3 270.386C108.642 270.726 108.913 271.129 109.098 271.574C109.283 272.019 109.379 272.496 109.38 272.977C109.381 273.459 109.286 273.936 109.102 274.381C108.918 274.826 108.648 275.231 108.308 275.572C107.967 275.913 107.562 276.183 107.117 276.368C106.672 276.552 106.194 276.647 105.712 276.647H105.701Z" fill="#4C35E4"/>
<path d="M55.3544 260.892H27.1843C26.7022 260.893 26.2245 260.8 25.7786 260.617C25.3327 260.433 24.9273 260.164 24.5856 259.824C24.244 259.484 23.9727 259.081 23.7874 258.636C23.6021 258.191 23.5063 257.715 23.5056 257.233C23.5049 256.751 23.5993 256.274 23.7833 255.829C23.9673 255.384 24.2373 254.979 24.578 254.638C24.9186 254.298 25.3232 254.027 25.7686 253.843C26.2139 253.658 26.6913 253.563 27.1735 253.563H55.3544C56.3265 253.563 57.2588 253.948 57.9467 254.634C58.6345 255.32 59.0217 256.251 59.0232 257.222C59.0246 258.193 58.6402 259.125 57.9544 259.813C57.2685 260.501 56.3373 260.889 55.3653 260.892H55.3544Z" fill="#4C35E4"/>
<path d="M175.28 188.248C174.683 188.249 174.092 188.133 173.539 187.908L75.5203 147.279V20.1026C75.5216 18.978 75.9693 17.8999 76.7653 17.1047C77.5614 16.3095 78.6406 15.8622 79.7663 15.8608H267.809C268.934 15.8622 270.014 16.3095 270.81 17.1047C271.606 17.8999 272.053 18.978 272.055 20.1026V147.367L271.87 147.446L177.073 187.888C176.505 188.126 175.895 188.249 175.28 188.248Z" fill="#4C35E4"/>
<path d="M341.509 117.36H341.387L271.751 147.064L176.475 187.706C176.102 187.863 175.703 187.944 175.299 187.946C174.895 187.948 174.495 187.871 174.121 187.718L75.8235 146.979L4.47657 117.408L4.36759 117.36H4.24606C3.12032 117.361 2.04104 117.808 1.24502 118.604C0.449005 119.399 0.00125198 120.477 0 121.602V305.814C0.00125198 306.939 0.449005 308.017 1.24502 308.812C2.04104 309.608 3.12032 310.055 4.24606 310.056H341.509C342.635 310.055 343.714 309.608 344.51 308.812C345.306 308.017 345.754 306.939 345.755 305.814V121.602C345.754 120.477 345.306 119.399 344.51 118.604C343.714 117.808 342.635 117.361 341.509 117.36ZM344.542 305.814C344.542 306.618 344.222 307.388 343.653 307.956C343.084 308.525 342.313 308.844 341.509 308.844H4.24606C3.44177 308.844 2.67052 308.525 2.1018 307.956C1.53308 307.388 1.21342 306.618 1.2131 305.814V121.602C1.2142 120.818 1.51843 120.065 2.06219 119.501C2.60595 118.936 3.34715 118.603 4.13084 118.572L75.8235 148.288L173.654 188.839C174.713 189.27 175.9 189.263 176.954 188.821L271.751 148.379L341.63 118.572C342.413 118.606 343.152 118.939 343.694 119.504C344.236 120.068 344.54 120.819 344.542 121.602L344.542 305.814Z" fill="#3F3D56"/>
<path d="M160.02 63.3995H93.2952C92.0096 63.3973 90.7775 62.8855 89.8693 61.9767C88.9611 61.0678 88.4509 59.836 88.4509 58.5518C88.4509 57.2676 88.9611 56.0358 89.8693 55.127C90.7775 54.2181 92.0096 53.7063 93.2952 53.7041H160.02C161.305 53.7063 162.538 54.2181 163.446 55.127C164.354 56.0358 164.864 57.2676 164.864 58.5518C164.864 59.836 164.354 61.0678 163.446 61.9767C162.538 62.8855 161.305 63.3973 160.02 63.3995Z" fill="white"/>
<path d="M125.444 42.7967H93.2951C92.0081 42.7967 90.7738 42.286 89.8637 41.3769C88.9536 40.4677 88.4424 39.2347 88.4424 37.949C88.4424 36.6633 88.9536 35.4303 89.8637 34.5212C90.7738 33.6121 92.0081 33.1013 93.2951 33.1013H125.444C126.731 33.1013 127.966 33.6121 128.876 34.5212C129.786 35.4303 130.297 36.6633 130.297 37.949C130.297 39.2347 129.786 40.4677 128.876 41.3769C127.966 42.286 126.731 42.7967 125.444 42.7967Z" fill="white"/>
<path d="M223.692 111.877H121.786C120.499 111.877 119.264 111.366 118.354 110.457C117.444 109.548 116.933 108.315 116.933 107.029C116.933 105.743 117.444 104.51 118.354 103.601C119.264 102.692 120.499 102.181 121.786 102.181H223.692C224.979 102.181 226.214 102.692 227.124 103.601C228.034 104.51 228.545 105.743 228.545 107.029C228.545 108.315 228.034 109.548 227.124 110.457C226.214 111.366 224.979 111.877 223.692 111.877Z" fill="white"/>
<path d="M223.692 134.297H121.785C121.148 134.298 120.516 134.174 119.926 133.931C119.336 133.688 118.8 133.331 118.349 132.88C117.897 132.43 117.539 131.895 117.295 131.307C117.05 130.718 116.924 130.087 116.924 129.45C116.924 128.812 117.05 128.181 117.295 127.592C117.539 127.004 117.897 126.469 118.349 126.019C118.8 125.568 119.336 125.212 119.926 124.968C120.516 124.725 121.148 124.601 121.785 124.602H223.692C224.33 124.601 224.962 124.725 225.552 124.968C226.142 125.212 226.678 125.568 227.129 126.019C227.581 126.469 227.939 127.004 228.183 127.592C228.428 128.181 228.553 128.812 228.553 129.45C228.553 130.087 228.428 130.718 228.183 131.307C227.939 131.895 227.581 132.43 227.129 132.88C226.678 133.331 226.142 133.688 225.552 133.931C224.962 134.174 224.33 134.298 223.692 134.297Z" fill="white"/>
<path d="M520.26 423.726H325.574C325.378 423.726 325.19 423.648 325.051 423.509C324.912 423.371 324.834 423.183 324.834 422.987C324.834 422.79 324.912 422.602 325.051 422.464C325.19 422.325 325.378 422.247 325.574 422.247H520.26C520.456 422.247 520.644 422.325 520.783 422.464C520.922 422.602 521 422.79 521 422.987C521 423.183 520.922 423.371 520.783 423.509C520.644 423.648 520.456 423.726 520.26 423.726Z" fill="#CBCBCB"/>
<path d="M180.486 423.726H108.681C108.485 423.726 108.297 423.648 108.158 423.509C108.019 423.371 107.941 423.183 107.941 422.987C107.941 422.79 108.019 422.602 108.158 422.464C108.297 422.325 108.485 422.247 108.681 422.247H180.486C180.682 422.247 180.87 422.325 181.009 422.464C181.148 422.602 181.226 422.79 181.226 422.987C181.226 423.183 181.148 423.371 181.009 423.509C180.87 423.648 180.682 423.726 180.486 423.726Z" fill="#CBCBCB"/>
<path d="M135.083 400.863C137.825 400.8 140.505 400.032 142.864 398.635C145.222 397.237 147.181 395.256 148.551 392.883C152.003 386.74 150.952 379.162 149.796 372.213L146.384 351.657L140.477 360.159C136.229 366.273 131.899 372.562 130.085 379.781C128.272 386.999 129.488 395.462 135.02 400.446" fill="#E6E6E6"/>
<path d="M144.513 423.751C141.483 418.176 138.402 412.535 136.723 406.379C135.232 400.912 134.895 395.15 136.58 389.686C137.475 386.79 138.87 384.072 140.7 381.655C141.178 381.025 142.128 381.799 141.653 382.426C138.489 386.617 136.739 391.703 136.655 396.951C136.576 402.782 138.347 408.439 140.732 413.701C142.173 416.884 143.838 419.957 145.507 423.027C145.598 423.16 145.635 423.323 145.61 423.482C145.585 423.641 145.5 423.785 145.372 423.883C145.24 423.978 145.076 424.018 144.916 423.992C144.755 423.967 144.611 423.88 144.515 423.749L144.513 423.751Z" fill="#F2F2F2"/>
</g>
<defs>
<clipPath id="clip0">
<rect width="521" height="424" fill="white"/>
</clipPath>
</defs>
</svg>
