<svg width="100" height="100" viewBox="0 0 100 100" fill="none" xmlns="http://www.w3.org/2000/svg">
<rect width="100" height="100" rx="20" fill="url(#paint0_linear)"/>
<g clip-path="url(#clip0)">
<path d="M33.344 38.282C33.344 38.282 29.6405 41.8205 29.438 45.563V46.259C29.6015 49.283 31.883 51.0635 31.883 51.0635C35.54 54.641 44.399 59.141 46.4765 60.158C46.4765 60.158 46.601 60.221 46.679 60.143L46.718 60.065V59.9795C41.039 47.6045 33.3425 38.2835 33.3425 38.2835L33.344 38.282ZM45.2975 63.203C45.2585 63.0395 45.1025 63.0395 45.1025 63.0395L30.344 63.563C31.9385 66.422 34.6415 68.618 37.4615 67.961C39.383 67.4615 43.7825 64.3985 45.2195 63.359C45.344 63.257 45.2975 63.179 45.2975 63.179V63.203ZM45.461 61.64C38.9765 57.257 26.4215 50.5625 26.4215 50.5625C26.1534 51.4014 26.0113 52.2754 26 53.156V53.297C26 55.4375 26.7965 56.9375 26.7965 56.9375C28.3985 60.32 31.4765 61.3445 31.4765 61.3445C32.8835 61.9385 34.2815 61.961 34.2815 61.961C34.523 62 43.079 61.961 45.359 61.961C45.461 61.961 45.5225 61.859 45.5225 61.859V61.742C45.5225 61.679 45.4595 61.64 45.4595 61.64H45.461ZM44.117 32.3825C42.6999 32.7454 41.4363 33.5526 40.5113 34.6857C39.5862 35.8189 39.0484 37.2185 38.9765 38.6795V39.5C39.0114 40.2097 39.119 40.9138 39.2975 41.6015C40.6175 47.399 47.024 56.8985 48.3995 58.898C48.5015 59 48.602 58.961 48.602 58.961C48.6403 58.9439 48.6723 58.9151 48.6933 58.8787C48.7143 58.8424 48.7233 58.8003 48.719 58.7585C50.8445 37.5635 46.5005 31.922 46.5005 31.922C45.86 31.961 44.117 32.3825 44.117 32.3825ZM60.719 36.9215C60.719 36.9215 59.7425 33.32 55.844 32.3585C55.844 32.3585 54.704 32.0765 53.4995 31.9205C53.4995 31.9205 49.1405 37.538 51.257 58.7795C51.281 58.9205 51.3815 58.9355 51.3815 58.9355C51.5225 58.9985 51.5765 58.8815 51.5765 58.8815C53.0225 56.819 59.381 47.3585 60.6785 41.6C60.6785 41.6 61.397 38.795 60.7175 36.92L60.719 36.9215ZM54.8825 63.062C54.8825 63.062 54.7415 63.062 54.7025 63.1565C54.7025 63.1565 54.6785 63.2975 54.7565 63.359C56.1545 64.382 60.4595 67.3595 62.522 67.961C62.522 67.961 62.843 68.063 63.3815 68.078H63.6545C65.0375 68.039 67.4585 67.343 69.6545 63.563L54.857 63.0635L54.8825 63.062ZM70.5395 46.2425C70.8215 42.1175 66.656 38.297 66.656 38.282C66.656 38.282 58.961 47.603 53.3195 59.8835C53.3195 59.8835 53.2565 60.0395 53.3585 60.1415L53.4365 60.1565H53.561C55.6775 59.102 64.475 54.617 68.1155 51.0785C68.1155 51.0785 70.4195 49.2185 70.538 46.2425H70.5395ZM73.5785 50.5235C73.5785 50.5235 61.0235 57.2585 54.539 61.6175C54.539 61.6175 54.437 61.703 54.476 61.844C54.476 61.844 54.539 61.961 54.617 61.961C56.9375 61.961 65.7425 61.961 65.9615 61.922C65.9615 61.922 67.1015 61.883 68.501 61.3445C68.501 61.3445 71.618 60.344 73.2425 56.798C73.2425 56.798 74.7035 53.9 73.5785 50.525V50.5235Z" fill="white"/>
</g>
<defs>
<linearGradient id="paint0_linear" x1="32" y1="12" x2="72.5" y2="112.5" gradientUnits="userSpaceOnUse">
<stop stop-color="#EF5454"/>
<stop offset="1" stop-color="#BB0505"/>
</linearGradient>
<clipPath id="clip0">
<rect width="48" height="48" fill="white" transform="translate(26 26)"/>
</clipPath>
</defs>
</svg>
