<svg width="32" height="32" viewBox="0 0 32 32" fill="none" xmlns="http://www.w3.org/2000/svg">
<path fill-rule="evenodd" clip-rule="evenodd" d="M9.95325 1.42125C11.5173 1.34925 12.0159 1.33325 15.9999 1.33325C19.9839 1.33325 20.4826 1.35059 22.0453 1.42125C23.6079 1.49192 24.6746 1.74125 25.6079 2.10259C26.5852 2.47192 27.4719 3.04925 28.2052 3.79592C28.9519 4.52792 29.5279 5.41325 29.8959 6.39192C30.2586 7.32525 30.5066 8.39192 30.5786 9.95192C30.6506 11.5186 30.6666 12.0173 30.6666 15.9999C30.6666 19.9839 30.6493 20.4826 30.5786 22.0466C30.5079 23.6066 30.2586 24.6733 29.8959 25.6066C29.5279 26.5854 28.951 27.4722 28.2052 28.2052C27.4719 28.9519 26.5852 29.5279 25.6079 29.8959C24.6746 30.2586 23.6079 30.5066 22.0479 30.5786C20.4826 30.6506 19.9839 30.6666 15.9999 30.6666C12.0159 30.6666 11.5173 30.6493 9.95325 30.5786C8.39325 30.5079 7.32658 30.2586 6.39325 29.8959C5.41448 29.5279 4.52768 28.9509 3.79458 28.2052C3.04843 27.4728 2.471 26.5864 2.10259 25.6079C1.74125 24.6746 1.49325 23.6079 1.42125 22.0479C1.34925 20.4813 1.33325 19.9826 1.33325 15.9999C1.33325 12.0159 1.35059 11.5173 1.42125 9.95459C1.49192 8.39192 1.74125 7.32525 2.10259 6.39192C2.47155 5.41336 3.04941 4.527 3.79592 3.79458C4.52797 3.04859 5.41388 2.47118 6.39192 2.10259C7.32525 1.74125 8.39192 1.49325 9.95192 1.42125H9.95325ZM21.9266 4.06125C20.3799 3.99059 19.9159 3.97592 15.9999 3.97592C12.0839 3.97592 11.6199 3.99059 10.0733 4.06125C8.64258 4.12659 7.86659 4.36525 7.34925 4.56659C6.66525 4.83325 6.17592 5.14925 5.66259 5.66259C5.17598 6.13599 4.80149 6.71229 4.56659 7.34925C4.36525 7.86659 4.12659 8.64258 4.06125 10.0733C3.99059 11.6199 3.97592 12.0839 3.97592 15.9999C3.97592 19.9159 3.99059 20.3799 4.06125 21.9266C4.12659 23.3573 4.36525 24.1333 4.56659 24.6506C4.80125 25.2866 5.17592 25.8639 5.66259 26.3373C6.13592 26.8239 6.71325 27.1986 7.34925 27.4333C7.86659 27.6346 8.64258 27.8733 10.0733 27.9386C11.6199 28.0093 12.0826 28.0239 15.9999 28.0239C19.9173 28.0239 20.3799 28.0093 21.9266 27.9386C23.3573 27.8733 24.1333 27.6346 24.6506 27.4333C25.3346 27.1666 25.8239 26.8506 26.3373 26.3373C26.8239 25.8639 27.1986 25.2866 27.4333 24.6506C27.6346 24.1333 27.8733 23.3573 27.9386 21.9266C28.0093 20.3799 28.0239 19.9159 28.0239 15.9999C28.0239 12.0839 28.0093 11.6199 27.9386 10.0733C27.8733 8.64258 27.6346 7.86659 27.4333 7.34925C27.1666 6.66525 26.8506 6.17592 26.3373 5.66259C25.8638 5.17601 25.2875 4.80153 24.6506 4.56659C24.1333 4.36525 23.3573 4.12659 21.9266 4.06125ZM14.1266 20.5212C15.1728 20.9568 16.3378 21.0155 17.4225 20.6875C18.5072 20.3596 19.4444 19.6651 20.0741 18.7229C20.7037 17.7807 20.9867 16.6491 20.8746 15.5214C20.7626 14.3937 20.2626 13.3399 19.4599 12.5399C18.9482 12.0286 18.3295 11.637 17.6484 11.3934C16.9672 11.1499 16.2405 11.0604 15.5206 11.1314C14.8007 11.2024 14.1055 11.4322 13.485 11.8041C12.8645 12.176 12.3342 12.6809 11.9323 13.2824C11.5304 13.8839 11.2668 14.567 11.1606 15.2825C11.0544 15.9981 11.1081 16.7283 11.318 17.4206C11.5278 18.1129 11.8886 18.7501 12.3742 19.2862C12.8599 19.8224 13.4584 20.2442 14.1266 20.5212ZM10.6693 10.6693C11.3693 9.96922 12.2003 9.41392 13.115 9.03507C14.0296 8.65621 15.0099 8.46122 15.9999 8.46122C16.9899 8.46122 17.9702 8.65621 18.8849 9.03507C19.7995 9.41392 20.6306 9.96922 21.3306 10.6693C22.0306 11.3693 22.5859 12.2003 22.9648 13.115C23.3436 14.0296 23.5386 15.0099 23.5386 15.9999C23.5386 16.9899 23.3436 17.9702 22.9648 18.8849C22.5859 19.7995 22.0306 20.6306 21.3306 21.3306C19.9168 22.7444 17.9993 23.5386 15.9999 23.5386C14.0005 23.5386 12.083 22.7444 10.6693 21.3306C9.25547 19.9168 8.46122 17.9993 8.46122 15.9999C8.46122 14.0005 9.25547 12.083 10.6693 10.6693ZM25.2106 9.58392C25.3841 9.42028 25.5229 9.22349 25.619 9.00522C25.715 8.78694 25.7663 8.55161 25.7698 8.31316C25.7733 8.07471 25.7289 7.83798 25.6392 7.617C25.5496 7.39602 25.4165 7.19527 25.2479 7.02664C25.0792 6.85801 24.8785 6.72493 24.6575 6.63528C24.4365 6.54562 24.1998 6.50122 23.9613 6.5047C23.7229 6.50817 23.4876 6.55946 23.2693 6.65551C23.051 6.75157 22.8542 6.89045 22.6906 7.06392C22.3723 7.40129 22.1981 7.84941 22.2049 8.31316C22.2116 8.7769 22.3988 9.21976 22.7268 9.54771C23.0547 9.87566 23.4976 10.0629 23.9613 10.0696C24.4251 10.0764 24.8732 9.90217 25.2106 9.58392Z" fill="white"/>
</svg>
