<svg width="100" height="100" viewBox="0 0 100 100" fill="none" xmlns="http://www.w3.org/2000/svg">
<rect width="100" height="100" rx="20" fill="url(#paint0_linear)"/>
<path d="M70.1274 42.6363H64.6783L63.2547 34.1436C62.9734 32.8441 62.3387 31.6476 61.4205 30.686C60.5022 29.7245 59.3362 29.0353 58.051 28.6945C56.7717 28.2376 55.4316 27.9729 54.0747 27.9091H45.9256C44.59 27.9459 43.267 28.1775 41.9983 28.5963C40.6914 28.9368 39.5062 29.6372 38.5777 30.6179C37.6491 31.5985 37.0143 32.8201 36.7456 34.1436L35.3219 42.6363H29.5783C29.2933 42.644 29.0142 42.7186 28.7634 42.8542C28.5127 42.9897 28.2974 43.1824 28.1349 43.4166C27.9724 43.6508 27.8673 43.9199 27.828 44.2022C27.7888 44.4846 27.8166 44.7722 27.9092 45.0418L33.8492 68.1145C34.5119 70.4218 36.5983 72.0369 39.0037 72.0909H60.9965C62.1756 72.0737 63.3179 71.678 64.2549 70.962C65.1919 70.246 65.8738 69.2477 66.2001 68.1145L72.091 45.0418C72.1952 44.7477 72.2219 44.4316 72.1685 44.1242C72.1151 43.8168 71.9833 43.5283 71.786 43.2866C71.5887 43.0448 71.3324 42.858 71.0419 42.7441C70.7514 42.6302 70.4364 42.5931 70.1274 42.6363ZM39.0528 42.6363L40.3783 34.7327C40.5247 34.0875 40.8596 33.5004 41.3403 33.0459C41.821 32.5914 42.4259 32.29 43.0783 32.18C43.9865 31.8854 44.9241 31.7234 45.8765 31.6891H54.0747C55.027 31.7234 55.9647 31.8854 56.8728 32.18C57.5252 32.29 58.1301 32.5914 58.6108 33.0459C59.0916 33.5004 59.4264 34.0875 59.5728 34.7327L60.9474 42.6363H39.0528Z" fill="white"/>
<defs>
<linearGradient id="paint0_linear" x1="19.5" y1="-9.88021e-07" x2="72.5" y2="112.5" gradientUnits="userSpaceOnUse">
<stop stop-color="#B454EF"/>
<stop offset="0.479973" stop-color="#B82872"/>
<stop offset="1" stop-color="#CB4900"/>
</linearGradient>
</defs>
</svg>
